# xmcd
#
# Track frame offsets: 
#        150
#        11803
#        23005
#        32478
#        41027
#        49917
#        59590
#        68015
#        77221
#        87815
#        99456
#        110037
#        122570
#        132569
#        143224
#        153380
#        165631
#        177662
#        189999
#        199299
#        208667
#        219997
#        230172
#        239454
#        249450
#        259859
#
# Disc length: 3573 seconds
#
# Revision: 0
# Processed by: cddbd v1.5.1PL0 Copyright (c) Steve Scherf et al.
# Submitted via: ExactAudioCopy v0.95a4
#
DISCID=7e0df31a
DTITLE=Various Artist - Louisiana Men
DYEAR=1900
DGENRE=Country
TTITLE0=Rusty and Doug - Louisiana Men
TTITLE1=Rusty and Doug - Make Me Realize
TTITLE2=Rusty and Doug - Diggy Liggy Lo
TTITLE3=Rusty and Doug - Cheated Too
TTITLE4=Rusty and Doug - So Lovely Baby (Second version)
TTITLE5=Rusty and Doug - Cajun Joe (The Bully Of The Bayou)
TTITLE6=Rusty and Doug - Sweet, Sweet Girl To Me
TTITLE7=Rusty and Doug - (Our Own) Jole Blon
TTITLE8=Rusty and Doug - (I'm Gonna, Gonna, Gonna) See My Baby
TTITLE9=Al Terry with Rusty and Doug - Money
TTITLE10=Wiley Barkdull - Pencil And Paper Love
TTITLE11=Wiley Barkdull - I'll Give My Heart To You (In Exchange For Y
TTITLE11=ours)
TTITLE12=Wiley Barkdull - 'Cause You're Always On My Mind
TTITLE13=Wiley Barkdull - Me, You And My Heart
TTITLE14=Wiley Barkdull - I've Got A Brand New Baby
TTITLE15=Wiley Barkdull - Going Walking
TTITLE16=Wiley Barkdull - Sweet As An Angel
TTITLE17=Wiley Barkdull - After All
TTITLE18=Wiley Barkdull with Helen Carter - I'd Like To
TTITLE19=Wiley Barkdull with Helen Carter - He Made You For Me
TTITLE20=Wiley Barkdull - No One Will Ever Know
TTITLE21=Wiley Barkdull - Too Many
TTITLE22=Wiley Barkdull - Hey, Honey
TTITLE23=Wiley Barkdull - I Ain't Gonna Waste My Time
TTITLE24=Wiley Barkdull - Keep-A Lovin' Me Baby
TTITLE25=Wiley Barkdull - Lonesome Journey
EXTD=
EXTT0=
EXTT1=
EXTT2=
EXTT3=
EXTT4=
EXTT5=
EXTT6=
EXTT7=
EXTT8=
EXTT9=
EXTT10=
EXTT11=
EXTT12=
EXTT13=
EXTT14=
EXTT15=
EXTT16=
EXTT17=
EXTT18=
EXTT19=
EXTT20=
EXTT21=
EXTT22=
EXTT23=
EXTT24=
EXTT25=
PLAYORDER=
